<?xml version="1.0" encoding="utf-8"?>
<!-- Generator: Adobe Illustrator 16.0.0, SVG Export Plug-In . SVG Version: 6.00 Build 0)  -->
<!DOCTYPE svg PUBLIC "-//W3C//DTD SVG 1.1//EN" "http://www.w3.org/Graphics/SVG/1.1/DTD/svg11.dtd">
<svg version="1.1" id="Ebene_1" xmlns="http://www.w3.org/2000/svg" xmlns:xlink="http://www.w3.org/1999/xlink" x="0px" y="0px"
	 width="139px" height="42.333px" viewBox="0 0 139 42.333" enable-background="new 0 0 139 42.333" xml:space="preserve">
<path fill="#F9F9F9" d="M31.277,29.59c-0.99,0.99-2.596,0.99-3.586,0l-4.476-4.475c-1.84,1.18-4.015,1.883-6.363,1.883
	c-6.535,0-11.833-5.297-11.833-11.833c0-6.535,5.298-11.833,11.833-11.833c6.536,0,11.833,5.297,11.833,11.833
	c0,2.348-0.704,4.523-1.883,6.363l4.475,4.475C32.268,26.995,32.268,28.6,31.277,29.59z M16.853,6.714
	c-4.667,0-8.452,3.784-8.452,8.452c0,4.668,3.784,8.452,8.452,8.452c4.668,0,8.452-3.784,8.452-8.452
	C25.305,10.498,21.521,6.714,16.853,6.714z"/>
<path fill="#66D330" d="M61.277,29.59c-0.99,0.99-2.596,0.99-3.586,0l-4.476-4.475c-1.84,1.18-4.015,1.883-6.363,1.883
	c-6.535,0-11.833-5.297-11.833-11.833c0-6.535,5.298-11.833,11.833-11.833c6.536,0,11.833,5.297,11.833,11.833
	c0,2.348-0.704,4.523-1.883,6.363l4.475,4.475C62.268,26.995,62.268,28.6,61.277,29.59z M46.853,6.714
	c-4.667,0-8.452,3.784-8.452,8.452c0,4.668,3.784,8.452,8.452,8.452c4.668,0,8.452-3.784,8.452-8.452
	C55.305,10.498,51.521,6.714,46.853,6.714z"/>
<line fill="none" stroke="#F9F9F9" stroke-width="3" stroke-linecap="round" stroke-linejoin="round" stroke-miterlimit="10" x1="66.578" y1="4.953" x2="97.19" y2="35.566"/>
<line fill="none" stroke="#F9F9F9" stroke-width="3" stroke-linecap="round" stroke-linejoin="round" stroke-miterlimit="10" x1="66.577" y1="35.566" x2="97.192" y2="4.952"/>
<line fill="none" stroke="#66D330" stroke-width="3" stroke-linecap="round" stroke-linejoin="round" stroke-miterlimit="10" x1="103.578" y1="4.953" x2="134.19" y2="35.566"/>
<line fill="none" stroke="#66D330" stroke-width="3" stroke-linecap="round" stroke-linejoin="round" stroke-miterlimit="10" x1="103.577" y1="35.566" x2="134.192" y2="4.952"/>
<g>
</g>
<g>
</g>
<g>
</g>
<g>
</g>
<g>
</g>
<g>
</g>
<g>
</g>
<g>
</g>
<g>
</g>
<g>
</g>
<g>
</g>
<g>
</g>
<g>
</g>
<g>
</g>
<g>
</g>
</svg>
