<?xml version="1.0" encoding="utf-8"?>
<!-- Generator: Adobe Illustrator 15.0.2, SVG Export Plug-In . SVG Version: 6.00 Build 0)  -->
<!DOCTYPE svg PUBLIC "-//W3C//DTD SVG 1.1//EN" "http://www.w3.org/Graphics/SVG/1.1/DTD/svg11.dtd">
<svg version="1.1" id="Ebene_1" xmlns="http://www.w3.org/2000/svg" xmlns:xlink="http://www.w3.org/1999/xlink" x="0px" y="0px"
	 width="300px" height="100px" viewBox="0 0 300 100" enable-background="new 0 0 300 100" xml:space="preserve">
<path fill="#5ACA00" d="M60.58,94.901c-5.92,0-11.404-0.917-16.443-2.751c-5.045-1.828-9.414-4.457-13.119-7.88
	c-3.701-3.416-6.609-7.561-8.723-12.424c-2.118-4.866-3.171-10.293-3.171-16.288c0-5.99,1.053-11.423,3.171-16.29
	c2.114-4.863,5.005-9.025,8.671-12.481c3.667-3.452,7.967-6.116,12.903-7.983c4.937-1.869,10.225-2.802,15.868-2.802
	c5.853,0,11.404,0.951,16.654,2.854c5.254,1.907,9.537,4.516,12.849,7.827L74.54,44.347c-1.548-1.834-3.381-3.296-5.499-4.39
	c-2.113-1.094-4.721-1.64-7.824-1.64c-2.049,0-4.036,0.408-5.979,1.217c-1.94,0.81-3.649,1.976-5.129,3.49
	c-1.482,1.516-2.677,3.331-3.594,5.451c-0.916,2.111-1.377,4.474-1.377,7.083c0,5.218,1.36,9.467,4.072,12.748
	c2.715,3.274,7.07,4.912,13.065,4.912c1.053,0,2.147-0.084,3.273-0.261c1.128-0.177,2.01-0.439,2.648-0.793l0.146-6.522H56.284
	l-0.145-17.999H90.51v39.963c-1.758,1.055-3.791,2.027-6.079,2.904c-2.291,0.888-4.726,1.64-7.295,2.277
	c-2.577,0.633-5.272,1.145-8.095,1.531C66.221,94.707,63.399,94.901,60.58,94.901z"/>
<path fill="#5ACA00" d="M113.436,70.387c-4.219-1.417-7.552-5-10.009-10.744L99.109,49.58l-3.006,1.229V91.47h47.595V71.111h-22.212
	l0,0C118.208,71.08,115.786,71.178,113.436,70.387z"/>
<polygon fill="#5ACA00" points="199.403,39.166 199.403,18.778 177.077,18.778 158.066,65.999 148.848,65.99 148.848,91.675 
	173.601,91.675 173.601,65.632 196.34,65.632 196.34,47.652 173.492,47.652 173.492,39.166 "/>
<path fill="#FFFFFF" d="M157.436,9.722l-9.928,33.872l-0.298,0.001l-9.126-26.136l-25.655,10.16l-3.317-8.103l-15.383,6.294
	l3.316,8.103l-5.013,2.052l4.638,11.33l5.083-2.08l5.282,12.911c1.797,4.395,4.29,7.158,7.479,8.286
	c3.188,1.126,7.209,0.698,12.06-1.287c1.648-0.677,3.17-1.434,4.564-2.271c1.394-0.837,2.707-1.792,3.382-2.494l-4.963-10.456
	c-0.283,0.223-0.548,0.389-1.059,0.706c-0.51,0.319-0.91,0.467-1.413,0.676c-1.329,0.543-2.494,0.66-3.506,0.35
	c-1.008-0.308-1.867-1.332-2.58-3.071l-3.934-9.616L126.419,35l13.147,27.922l15.313-0.093L176.426,9.63L157.436,9.722z"/>
<polygon fill="#5ACA00" points="110.224,15.101 113.542,23.204 121.224,19.912 121.224,5.689 96.103,5.689 96.103,20.905 "/>
</svg>
