<?xml version="1.0" encoding="utf-8"?>
<!-- Generator: Adobe Illustrator 16.0.0, SVG Export Plug-In . SVG Version: 6.00 Build 0)  -->
<!DOCTYPE svg PUBLIC "-//W3C//DTD SVG 1.1//EN" "http://www.w3.org/Graphics/SVG/1.1/DTD/svg11.dtd">
<svg version="1.1" id="Layer_1" xmlns="http://www.w3.org/2000/svg" xmlns:xlink="http://www.w3.org/1999/xlink" x="0px" y="0px"
	 width="273.063px" height="104.25px" viewBox="-38.063 -43.25 273.063 104.25"
	 enable-background="new -38.063 -43.25 273.063 104.25" xml:space="preserve">
<g id="_x36__micro_sing" display="none">
	<g display="inline">
		<path d="M3.627-10.326c-1.713,0-3.205,0.896-4.051,2.233l6.529,6.529c1.381-0.83,2.311-2.316,2.311-4.029
			C8.416-8.206,6.271-10.326,3.627-10.326z"/>
		<path d="M-1.162-5.593c0,0.451,0.086,0.881,0.205,1.295L-12.454,7.196c-0.646,0.404-1.077,1.111-1.077,1.922
			c0,0.412,0.119,0.793,0.313,1.127l-0.781,0.781c-0.223,0.223-0.223,0.584,0,0.807s0.583,0.223,0.806,0l0.774-0.775
			c0.35,0.211,0.757,0.34,1.197,0.34c0.843,0,1.574-0.451,1.976-1.117L2.148-1.115C2.618-0.964,3.107-0.86,3.628-0.86
			c0.179,0,0.347-0.033,0.521-0.053l-5.252-5.25C-1.127-5.974-1.162-5.788-1.162-5.593z M-2.279,1.315
			c-0.662,0-1.197-0.537-1.197-1.197c0-0.662,0.535-1.198,1.197-1.198s1.197,0.536,1.197,1.198
			C-1.082,0.778-1.617,1.315-2.279,1.315z"/>
	</g>
</g>
<path fill="none" stroke="#4A4A4A" stroke-width="2" stroke-linejoin="round" stroke-miterlimit="10" d="M72.897,35.682v6.268
	c0,2.922,1.205,5.566,3.144,7.459l6.126,6.127c4.083,4.08,10.71,4.08,14.791,0l6.126-6.127c1.94-1.893,3.146-4.537,3.146-7.459
	V37.76H87.688c-2.418,0-4.376-1.875-4.376-4.164s1.958-4.166,4.376-4.166h19.083c2.855-16.063,16.127-22.731,16.127-38.395
	c0-17.917-14.916-32.439-33.334-32.439S56.229-26.883,56.229-8.965C56.229,8.724,72.897,14.969,72.897,35.682z M95.086-22.656
	c-1.96-0.354-3.438-2.062-3.438-4.104c0-2.289,1.875-4.228,4.167-4.228c3.312,0,7.33,2.353,10.704,5.689
	c3.441,3.415,5.959,7.978,5.959,10.977c0,2.293-1.874,4.167-4.164,4.167c-2.043,0-3.748-1.479-4.106-3.437
	C103.167-17.78,99.585-21.611,95.086-22.656z"/>
<g>
	<path fill="none" stroke="#4A4A4A" stroke-width="2" stroke-miterlimit="10" d="M-16.56-35.242"/>
	<path fill="none" stroke="#4A4A4A" stroke-width="2" stroke-miterlimit="10" d="M20.096-16.118L-8.643-27.636
		c-0.042-5.399-3.284-10.494-8.606-12.626c-7.027-2.816-15.01,0.599-17.826,7.627c-2.817,7.027,0.597,15.007,7.626,17.824
		c5.322,2.135,11.185,0.69,14.944-3.186L16.232-6.478c1.743,0.699,3.958-0.738,4.948-3.204l0.282-0.7
		C22.444-12.848,21.838-15.419,20.096-16.118z"/>
	<path fill="none" stroke="#4A4A4A" stroke-width="2" stroke-linecap="round" stroke-miterlimit="10" d="M21.25-9.849
		c4.889,1.96,5.061,4.114,5.053,7.347"/>
	<path fill="none" stroke="#4A4A4A" stroke-width="2" stroke-miterlimit="10" d="M45.68,34.11L27.32,29.612l3.178,9.648
		c1.006,3.057-0.657,6.349-3.71,7.353L22.64,47.98l-29.036,9.563l-2.766,0.913c-3.054,1.005-6.348-0.655-7.353-3.711l-0.911-2.764
		l0,0l-10.932-33.189l0,0l-0.911-2.763c-1.005-3.053,0.657-6.344,3.71-7.35l2.765-0.913l0,0L6.244-1.796l0,0l4.147-1.366
		c3.053-1.005,6.348,0.652,7.352,3.707l3.203,9.724l12.08-14.511c2.631-1.503,4.748,0.446,5.504,2.737l9.9,30.066
		C49.187,30.846,49.119,33.334,45.68,34.11z"/>
	<circle fill="none" stroke="#4A4A4A" stroke-width="2" stroke-miterlimit="10" cx="11.089" cy="4.651" r="3.944"/>
	<path fill="none" stroke="#4A4A4A" stroke-width="2" stroke-miterlimit="10" d="M-26.126-32.402
		c-0.697,0.616-1.752,0.665-2.502,0.072c-0.839-0.662-1.009-1.912-0.345-2.752c0.958-1.215,2.985-2.01,5.187-2.283
		c2.251-0.274,4.655,0.123,5.755,0.99c0.842,0.665,0.987,1.896,0.323,2.736c-0.589,0.749-1.628,0.948-2.45,0.512
		C-21.996-33.958-24.44-33.752-26.126-32.402z"/>
</g>
<g>
	<circle fill="none" stroke="#4A4A4A" stroke-width="2" stroke-miterlimit="10" cx="181.897" cy="8.598" r="14.243"/>
	<path fill="none" stroke="#4A4A4A" stroke-width="2" stroke-miterlimit="10" d="M208.336,8.598
		c0,14.602-11.837,26.432-26.437,26.432c-14.602,0-26.436-11.83-26.436-26.432c0-14.599,11.834-26.436,26.436-26.436
		C196.499-17.838,208.336-6.001,208.336,8.598z"/>
	<circle fill="none" stroke="#4A4A4A" stroke-width="2" stroke-miterlimit="10" cx="181.897" cy="8.597" r="38.326"/>
	<circle fill="none" stroke="#4A4A4A" stroke-width="2" stroke-miterlimit="10" cx="181.897" cy="8.598" r="50"/>
	<polygon fill="none" stroke="#4A4A4A" stroke-width="2" stroke-linejoin="round" stroke-miterlimit="10" points="182.093,18.721 
		179.52,7.309 190.689,10.792 	"/>
	
		<polygon fill="none" stroke="#4A4A4A" stroke-width="2" stroke-linecap="round" stroke-linejoin="round" stroke-miterlimit="10" points="
		217.431,54.576 214.856,43.162 226.026,46.645 225.836,46.816 219.946,48.779 217.652,54.371 	"/>
	
		<line fill="none" stroke="#4A4A4A" stroke-width="2" stroke-linecap="round" stroke-linejoin="round" stroke-miterlimit="10" x1="186.25" y1="14.886" x2="216.207" y2="44.369"/>
</g>
</svg>
