<?xml version="1.0" encoding="utf-8"?>
<!-- Generator: Adobe Illustrator 16.0.0, SVG Export Plug-In . SVG Version: 6.00 Build 0)  -->
<!DOCTYPE svg PUBLIC "-//W3C//DTD SVG 1.1//EN" "http://www.w3.org/Graphics/SVG/1.1/DTD/svg11.dtd">
<svg version="1.1" id="Layer_1" xmlns="http://www.w3.org/2000/svg" xmlns:xlink="http://www.w3.org/1999/xlink" x="0px" y="0px"
	 width="85.667px" height="84.334px" viewBox="0 0 85.667 84.334" enable-background="new 0 0 85.667 84.334" xml:space="preserve">
<g display="none">
	<g display="inline">
		<path fill="#FFFFFF" d="M256,289c-18.224,0-33-14.774-33-33s14.776-33,33-33c18.226,0,33,14.774,33,33S274.225,289,256,289z
			 M256,231.25c-13.668,0-24.75,11.082-24.75,24.75s11.082,24.75,24.75,24.75s24.75-11.082,24.75-24.75S269.667,231.25,256,231.25z
			 M247.75,243.625L268.375,256l-20.625,12.375V243.625z"/>
	</g>
</g>
<path fill="#F9F9F9" d="M42.833,74.667c-17.947,0-32.5-14.552-32.5-32.5c0-17.95,14.553-32.5,32.5-32.5
	c17.948,0,32.5,14.55,32.5,32.5C75.333,60.115,60.782,74.667,42.833,74.667z M42.833,17.792c-13.461,0-24.375,10.914-24.375,24.375
	s10.914,24.375,24.375,24.375s24.375-10.914,24.375-24.375S56.294,17.792,42.833,17.792z M34.708,29.979l20.313,12.188
	L34.708,54.354V29.979L34.708,29.979z"/>
</svg>
