<?xml version="1.0" encoding="utf-8"?>
<!-- Generator: Adobe Illustrator 16.0.0, SVG Export Plug-In . SVG Version: 6.00 Build 0)  -->
<!DOCTYPE svg PUBLIC "-//W3C//DTD SVG 1.1//EN" "http://www.w3.org/Graphics/SVG/1.1/DTD/svg11.dtd">
<svg version="1.1" id="Ebene_1" xmlns="http://www.w3.org/2000/svg" xmlns:xlink="http://www.w3.org/1999/xlink" x="0px" y="0px"
	 width="324.083px" height="51.375px" viewBox="0 0 324.083 51.375" enable-background="new 0 0 324.083 51.375"
	 xml:space="preserve">
<circle fill="#E2E2E2" cx="25.341" cy="25.438" r="25"/>
<polygon fill="#434343" points="28.475,32.264 26.748,33.996 18.207,25.438 18.207,25.438 18.207,25.438 26.748,16.88 
	28.475,18.613 21.667,25.438 "/>
<circle fill="#E2E2E2" cx="76.341" cy="25.438" r="25"/>
<polygon fill="#434343" points="73.207,18.613 74.934,16.881 83.475,25.439 83.475,25.439 83.475,25.439 74.934,33.996 
	73.207,32.264 80.015,25.439 "/>
<circle fill="#FFFFFF" cx="127.341" cy="25.438" r="25"/>
<polygon fill="#434343" points="130.475,32.264 128.748,33.996 120.207,25.438 120.207,25.438 120.207,25.438 128.748,16.88 
	130.475,18.613 123.667,25.438 "/>
<circle fill="#FFFFFF" cx="178.341" cy="25.438" r="25"/>
<polygon fill="#434343" points="175.207,18.613 176.933,16.881 185.475,25.439 185.475,25.439 185.475,25.439 176.933,33.996 
	175.207,32.264 182.015,25.439 "/>
<g>
	<g id="Ebene_2">
		<rect x="212.541" y="8.464" fill="#FFFFFF" width="21.611" height="25.349"/>
	</g>
	<g id="Layer_1">
		<path fill="#3A589B" d="M221.082,30.84h4.383V20.23h2.925l0.389-3.654h-3.313l0.005-1.83c0-0.955,0.092-1.465,1.459-1.465h1.829
			V9.625h-2.926c-3.516,0-4.75,1.773-4.75,4.755v2.194h-2.19v3.657h2.19V30.84L221.082,30.84z M223.833,39.732
			c-10.77,0-19.5-8.73-19.5-19.5c0-10.771,8.73-19.5,19.5-19.5c10.771,0,19.5,8.729,19.5,19.5
			C243.333,31.002,234.604,39.732,223.833,39.732z"/>
	</g>
</g>
<g>
	<rect x="251.083" y="6.482" fill="#FFFFFF" width="25.125" height="24"/>
	<path fill="#598DCA" d="M266.542,12.616c-1.703,0.62-2.776,2.218-2.655,3.966l0.041,0.674l-0.681-0.082
		c-2.479-0.314-4.645-1.39-6.483-3.193l-0.897-0.896l-0.232,0.662c-0.488,1.472-0.176,3.03,0.846,4.076
		c0.545,0.579,0.422,0.661-0.518,0.316c-0.328-0.11-0.613-0.192-0.642-0.152c-0.094,0.098,0.229,1.35,0.49,1.846
		c0.354,0.688,1.076,1.363,1.864,1.765l0.668,0.315l-0.788,0.014c-0.765,0-0.791,0.015-0.709,0.305
		c0.271,0.896,1.35,1.846,2.547,2.259l0.844,0.288l-0.733,0.439c-1.09,0.637-2.371,0.993-3.65,1.021
		c-0.613,0.016-1.117,0.07-1.117,0.111c0,0.137,1.662,0.905,2.627,1.211c2.902,0.896,6.35,0.51,8.938-1.021
		c1.841-1.089,3.679-3.25,4.535-5.344c0.463-1.115,0.929-3.154,0.929-4.131c0-0.633,0.039-0.716,0.805-1.475
		c0.449-0.439,0.869-0.922,0.953-1.061c0.135-0.262,0.121-0.262-0.571-0.027c-1.158,0.414-1.322,0.357-0.75-0.262
		c0.424-0.44,0.926-1.239,0.926-1.474c0-0.041-0.203,0.027-0.437,0.15c-0.244,0.138-0.789,0.344-1.199,0.469l-0.733,0.234
		l-0.668-0.455c-0.365-0.248-0.885-0.522-1.156-0.605C268.232,12.368,267.167,12.396,266.542,12.616z M263.833,39.732
		c-10.77,0-19.5-8.73-19.5-19.5s8.73-19.5,19.5-19.5c10.771,0,19.5,8.73,19.5,19.5S274.604,39.732,263.833,39.732z"/>
</g>
<g>
	<circle fill="#D03528" cx="303.833" cy="20.232" r="19.5"/>
	<path fill="#FFFFFF" d="M301.6,14.628c0,0.627,0.183,1.129,0.543,1.5c0.358,0.371,0.842,0.559,1.442,0.559
		c0.625,0,1.117-0.18,1.474-0.541c0.356-0.359,0.535-0.855,0.535-1.491v-3.821c0-0.564-0.183-1.025-0.546-1.384
		c-0.362-0.358-0.827-0.537-1.397-0.537c-0.625,0-1.125,0.171-1.496,0.51c-0.366,0.34-0.555,0.797-0.555,1.369V14.628L301.6,14.628z
		 M303.016,10.736c0-0.162,0.053-0.293,0.155-0.392c0.105-0.098,0.242-0.149,0.41-0.149c0.185,0,0.33,0.051,0.441,0.149
		c0.109,0.099,0.166,0.23,0.166,0.392v4.03c0,0.2-0.053,0.354-0.162,0.47c-0.111,0.113-0.26,0.17-0.445,0.17
		c-0.184,0-0.324-0.056-0.42-0.166c-0.098-0.111-0.146-0.27-0.146-0.473V10.736L303.016,10.736z M298.316,16.5h1.549v-4.162
		l1.805-5.869h-1.576l-0.956,4.01h-0.101l-1.004-4.011h-1.559l1.844,6.057V16.5H298.316L298.316,16.5z M307.725,16.607
		c0.258,0,0.521-0.078,0.799-0.236c0.271-0.154,0.537-0.387,0.791-0.687V16.5h1.373V9.1h-1.373v5.618
		c-0.129,0.162-0.271,0.293-0.428,0.397c-0.152,0.104-0.279,0.155-0.386,0.155c-0.127,0-0.221-0.038-0.276-0.118
		c-0.062-0.078-0.086-0.205-0.086-0.38V9.099h-1.375v6.186c0,0.44,0.077,0.771,0.239,0.992
		C307.166,16.498,307.404,16.607,307.725,16.607z M315.022,22.115c0-1.785-1.467-3.236-3.274-3.236
		c-2.58-0.107-5.22-0.156-7.91-0.15c-2.693-0.005-5.334,0.043-7.914,0.15c-1.812,0-3.273,1.451-3.273,3.236
		c-0.109,1.414-0.156,2.832-0.152,4.246c-0.004,1.416,0.043,2.832,0.152,4.248c0,1.785,1.467,3.236,3.273,3.236
		c2.58,0.109,5.221,0.154,7.914,0.15c2.69,0.004,5.33-0.041,7.91-0.15c1.813,0,3.274-1.451,3.274-3.236
		c0.104-1.416,0.153-2.832,0.149-4.248C315.178,24.947,315.128,23.529,315.022,22.115z M297.404,31.232h-1.549v-8.578h-1.605V21.2
		h4.756v1.455h-1.602V31.232z M302.916,31.232h-1.375v-0.814c-0.254,0.301-0.518,0.529-0.793,0.688
		c-0.272,0.158-0.539,0.236-0.797,0.236c-0.318,0-0.559-0.109-0.719-0.33s-0.242-0.553-0.242-0.99v-6.188h1.375v5.67
		c0,0.18,0.029,0.305,0.086,0.383c0.059,0.078,0.152,0.117,0.281,0.117c0.102,0,0.229-0.051,0.383-0.154
		c0.154-0.103,0.297-0.238,0.426-0.396v-5.618h1.375V31.232z M308.212,29.701c0,0.523-0.106,0.928-0.323,1.209
		c-0.216,0.277-0.525,0.416-0.937,0.416c-0.268,0-0.506-0.055-0.717-0.16c-0.213-0.109-0.408-0.273-0.588-0.502v0.568h-1.391V21.201
		h1.391v3.231c0.186-0.228,0.381-0.397,0.592-0.517c0.207-0.117,0.418-0.177,0.631-0.177c0.437,0,0.771,0.156,0.998,0.474
		c0.229,0.316,0.344,0.776,0.344,1.381V29.701L308.212,29.701z M313.298,27.705h-2.633v1.396c0,0.391,0.045,0.657,0.135,0.811
		c0.095,0.148,0.248,0.229,0.47,0.229c0.229,0,0.387-0.065,0.478-0.19c0.092-0.13,0.137-0.408,0.137-0.847v-0.516h1.418v0.559
		c0,0.756-0.172,1.328-0.521,1.713c-0.346,0.384-0.856,0.576-1.545,0.576c-0.612,0-1.1-0.205-1.452-0.61
		c-0.353-0.404-0.531-0.968-0.531-1.679v-3.323c0-0.643,0.194-1.167,0.582-1.571c0.393-0.403,0.893-0.604,1.508-0.604
		c0.631,0,1.113,0.188,1.449,0.563c0.34,0.373,0.51,0.912,0.51,1.614L313.298,27.705L313.298,27.705L313.298,27.705z
		 M311.279,24.941c-0.219,0-0.375,0.066-0.469,0.2c-0.1,0.136-0.146,0.358-0.146,0.667v0.75h1.215v-0.75
		c0-0.309-0.045-0.532-0.141-0.667C311.645,25.007,311.488,24.941,311.279,24.941z M306.223,24.916
		c-0.099,0-0.195,0.022-0.289,0.072c-0.099,0.047-0.19,0.123-0.285,0.225v4.612c0.11,0.118,0.222,0.209,0.326,0.262
		c0.104,0.056,0.215,0.076,0.334,0.076c0.166,0,0.291-0.052,0.366-0.152c0.08-0.104,0.119-0.274,0.119-0.512v-3.821
		c0-0.248-0.047-0.438-0.145-0.567C306.55,24.981,306.408,24.916,306.223,24.916z"/>
</g>
</svg>
