<?xml version="1.0" encoding="utf-8"?>
<!-- Generator: Adobe Illustrator 16.0.0, SVG Export Plug-In . SVG Version: 6.00 Build 0)  -->
<!DOCTYPE svg PUBLIC "-//W3C//DTD SVG 1.1//EN" "http://www.w3.org/Graphics/SVG/1.1/DTD/svg11.dtd">
<svg version="1.1" id="Ebene_1" xmlns="http://www.w3.org/2000/svg" xmlns:xlink="http://www.w3.org/1999/xlink" x="0px" y="0px"
	 width="193.667px" height="151px" viewBox="0 0 193.667 151" enable-background="new 0 0 193.667 151" xml:space="preserve">
<path id="f" fill="#FFFFFF" d="M56.329,139.583V80.285h19.905l2.98-23.111H56.329V42.42c0-6.691,1.859-11.25,11.453-11.25
	l12.238-0.006v-20.67c-2.117-0.281-9.382-0.91-17.832-0.91c-17.644,0-29.724,10.77-29.724,30.548v17.043H12.508v23.111h19.956
	v59.298H56.329z"/>
<path fill="#FFFFFF" d="M182.499,19.547c-3.679,1.631-7.633,2.734-11.783,3.23c4.234-2.539,7.488-6.56,9.02-11.351
	c-3.964,2.351-8.355,4.059-13.027,4.978c-3.743-3.987-9.074-6.478-14.975-6.478c-11.33,0-20.517,9.186-20.517,20.515
	c0,1.608,0.181,3.174,0.531,4.676c-17.051-0.855-32.167-9.023-42.286-21.436c-1.766,3.03-2.778,6.554-2.778,10.314
	c0,7.118,3.622,13.397,9.126,17.077c-3.363-0.107-6.526-1.03-9.292-2.567c-0.002,0.086-0.002,0.172-0.002,0.258
	c0,9.94,7.072,18.232,16.458,20.118c-1.722,0.468-3.534,0.72-5.405,0.72c-1.322,0-2.607-0.13-3.86-0.369
	c2.611,8.15,10.187,14.082,19.165,14.248c-7.021,5.502-15.868,8.783-25.479,8.783c-1.657,0-3.29-0.099-4.895-0.288
	c9.079,5.822,19.864,9.219,31.449,9.219c37.737,0,58.373-31.264,58.373-58.375c0-0.89-0.02-1.775-0.06-2.655
	C176.271,27.275,179.749,23.661,182.499,19.547z"/>
<g>
</g>
<g>
</g>
<g>
</g>
<g>
</g>
<g>
</g>
<g>
</g>
<g>
</g>
<g>
</g>
<g>
</g>
<g>
</g>
<g>
</g>
<g>
</g>
<g>
</g>
<g>
</g>
<g>
</g>
</svg>
