<?xml version="1.0" encoding="utf-8"?>
<!-- Generator: Adobe Illustrator 16.0.0, SVG Export Plug-In . SVG Version: 6.00 Build 0)  -->
<!DOCTYPE svg PUBLIC "-//W3C//DTD SVG 1.1//EN" "http://www.w3.org/Graphics/SVG/1.1/DTD/svg11.dtd">
<svg version="1.1" id="Ebene_1" xmlns="http://www.w3.org/2000/svg" xmlns:xlink="http://www.w3.org/1999/xlink" x="0px" y="0px"
	 width="131.25px" height="30.125px" viewBox="0 0 131.25 30.125" enable-background="new 0 0 131.25 30.125" xml:space="preserve">
<path fill="#F9F9F9" d="M24.044,4.888c-0.77,0.341-1.598,0.572-2.465,0.675c0.887-0.531,1.566-1.372,1.887-2.375
	C22.638,3.68,21.72,4.038,20.741,4.23c-0.783-0.834-1.898-1.355-3.133-1.355c-2.371,0-4.292,1.921-4.292,4.291
	c0,0.337,0.038,0.665,0.111,0.979C9.861,7.966,6.698,6.257,4.581,3.66C4.212,4.294,4,5.031,4,5.818C4,7.307,4.758,8.621,5.91,9.39
	C5.206,9.368,4.544,9.175,3.965,8.853c0,0.019,0,0.036,0,0.055c0,2.078,1.48,3.813,3.443,4.207c-0.36,0.1-0.739,0.15-1.13,0.15
	c-0.277,0-0.545-0.025-0.808-0.076c0.546,1.705,2.131,2.945,4.009,2.98c-1.469,1.15-3.319,1.838-5.33,1.838
	c-0.346,0-0.688-0.021-1.024-0.061c1.899,1.217,4.155,1.928,6.579,1.928c7.895,0,12.211-6.539,12.211-12.21
	c0-0.186-0.004-0.372-0.014-0.555C22.741,6.504,23.468,5.748,24.044,4.888z"/>
<path fill="#39A9E0" d="M47.983,4.888c-0.77,0.341-1.598,0.572-2.465,0.675c0.887-0.531,1.566-1.372,1.887-2.375
	C46.577,3.68,45.659,4.038,44.68,4.23c-0.783-0.834-1.898-1.355-3.133-1.355c-2.371,0-4.292,1.921-4.292,4.291
	c0,0.337,0.038,0.665,0.111,0.979C33.8,7.966,30.637,6.257,28.52,3.66c-0.369,0.634-0.581,1.371-0.581,2.158
	c0,1.489,0.758,2.803,1.91,3.572c-0.704-0.021-1.365-0.215-1.944-0.537c0,0.019,0,0.036,0,0.055c0,2.078,1.48,3.812,3.443,4.207
	c-0.36,0.1-0.739,0.15-1.13,0.15c-0.277,0-0.545-0.025-0.808-0.076c0.546,1.705,2.131,2.945,4.009,2.98
	c-1.469,1.15-3.319,1.838-5.33,1.838c-0.346,0-0.688-0.021-1.024-0.061c1.899,1.217,4.155,1.928,6.579,1.928
	c7.895,0,12.211-6.539,12.211-12.21c0-0.186-0.004-0.372-0.014-0.555C46.68,6.504,47.407,5.748,47.983,4.888z"/>
<path id="f" fill="#F9F9F9" d="M56.707,19.875V12.12h2.604l0.389-3.022h-2.992v-1.93c0-0.875,0.243-1.471,1.498-1.471h1.6V2.994
	c-0.276-0.036-1.226-0.119-2.331-0.119c-2.308,0-3.888,1.408-3.888,3.995v2.229h-2.609v3.022h2.609v7.755H56.707z"/>
<path id="f_1_" fill="#3B5998" d="M68.707,19.875V12.12h2.604l0.389-3.022h-2.992v-1.93c0-0.875,0.243-1.471,1.498-1.471h1.6V2.994
	c-0.276-0.036-1.226-0.119-2.331-0.119c-2.308,0-3.888,1.408-3.888,3.995v2.229h-2.609v3.022h2.609v7.755H68.707z"/>
<circle fill="#3B5998" cx="87.52" cy="15.375" r="12.5"/>
<rect x="75" y="2.875" fill="#3B5998" width="25" height="25"/>
<path id="f_2_" fill="#FFFFFF" d="M88.822,24.919v-8.708h2.923l0.437-3.394h-3.359v-2.167C88.822,9.669,89.095,9,90.504,9
	l1.797-0.001V5.964c-0.311-0.041-1.377-0.133-2.619-0.133c-2.59,0-4.363,1.581-4.363,4.485v2.502h-2.931v3.394h2.931v8.708H88.822z"
	/>
<circle fill="#00B5F2" cx="115.496" cy="15.375" r="12.5"/>
<rect x="103" y="2.875" fill="#00B5F2" width="25" height="25"/>
<path fill="#FFFFFF" d="M124.231,9.957c-0.644,0.285-1.333,0.478-2.059,0.565c0.739-0.444,1.308-1.146,1.575-1.983
	c-0.691,0.41-1.459,0.709-2.275,0.869c-0.654-0.696-1.585-1.131-2.615-1.131c-1.98,0-3.585,1.604-3.585,3.584
	c0,0.281,0.032,0.554,0.093,0.816c-2.979-0.149-5.619-1.576-7.387-3.745c-0.309,0.529-0.486,1.145-0.486,1.802
	c0,1.244,0.633,2.341,1.596,2.983c-0.588-0.019-1.141-0.18-1.624-0.448c-0.001,0.015-0.001,0.03-0.001,0.045
	c0,1.736,1.236,3.185,2.875,3.514c-0.301,0.083-0.617,0.126-0.943,0.126c-0.23,0-0.455-0.023-0.675-0.065
	c0.456,1.424,1.78,2.46,3.349,2.489c-1.227,0.961-2.771,1.534-4.451,1.534c-0.289,0-0.575-0.017-0.855-0.05
	c1.586,1.017,3.471,1.61,5.494,1.61c6.592,0,10.197-5.461,10.197-10.197c0-0.156-0.004-0.31-0.01-0.464
	C123.144,11.307,123.75,10.676,124.231,9.957z"/>
<g>
</g>
<g>
</g>
<g>
</g>
<g>
</g>
<g>
</g>
<g>
</g>
<g>
</g>
<g>
</g>
<g>
</g>
<g>
</g>
<g>
</g>
<g>
</g>
<g>
</g>
<g>
</g>
<g>
</g>
</svg>
