<?xml version="1.0" encoding="utf-8"?>
<!-- Generator: Adobe Illustrator 16.0.0, SVG Export Plug-In . SVG Version: 6.00 Build 0)  -->
<!DOCTYPE svg PUBLIC "-//W3C//DTD SVG 1.1//EN" "http://www.w3.org/Graphics/SVG/1.1/DTD/svg11.dtd">
<svg version="1.1" id="YouTube_Logo" xmlns="http://www.w3.org/2000/svg" xmlns:xlink="http://www.w3.org/1999/xlink" x="0px"
	 y="0px" width="107px" height="46.5px" viewBox="214.5 96.5 107 46.5" enable-background="new 214.5 96.5 107 46.5"
	 xml:space="preserve">
<g>
	
		<linearGradient id="lozenge_1_" gradientUnits="userSpaceOnUse" x1="550.3108" y1="-242.3174" x2="550.3108" y2="-284.0483" gradientTransform="matrix(1 0 0 -1 -262.5996 -143.8398)">
		<stop  offset="0" style="stop-color:#E32E28"/>
		<stop  offset="1" style="stop-color:#BE2126"/>
	</linearGradient>
	<path id="lozenge_2_" fill="url(#lozenge_1_)" d="M316.916,107.48c0,0-0.583-4.089-2.369-5.889
		c-2.267-2.363-4.808-2.375-5.973-2.513c-8.34-0.6-20.85-0.6-20.85-0.6h-0.026c0,0-12.511,0-20.851,0.6
		c-1.165,0.138-3.705,0.15-5.972,2.513c-1.787,1.8-2.369,5.889-2.369,5.889s-0.596,4.801-0.596,9.603v4.501
		c0,4.801,0.596,9.603,0.596,9.603s0.582,4.088,2.369,5.889c2.267,2.363,5.246,2.288,6.572,2.536
		c4.769,0.455,20.264,0.597,20.264,0.597s12.523-0.02,20.863-0.619c1.165-0.139,3.706-0.15,5.972-2.514
		c1.787-1.801,2.369-5.889,2.369-5.889s0.596-4.802,0.596-9.603v-4.501C317.511,112.281,316.916,107.48,316.916,107.48z"/>
	<g id="You">
		<path id="u_2_" d="M254.835,132.248h-3.792v-2.196c-1.438,1.648-2.656,2.48-3.984,2.48c-1.166,0-1.976-0.55-2.381-1.543
			c-0.246-0.604-0.421-1.548-0.421-2.933v-15.968h3.792v14.97c0,0.847,0,1.197,0,1.396c0.088,0.561,0.326,0.766,0.809,0.766
			c0.726,0,1.383-0.631,2.185-1.764v-15.368h3.792V132.248z"/>
		<path id="o_2_" d="M241.462,118.675c0-2.154-0.433-3.772-1.198-4.79c-1.01-1.379-2.595-1.943-4.191-1.943
			c-1.807,0-3.183,0.564-4.191,1.943c-0.777,1.018-1.194,2.653-1.194,4.808l-0.004,7.167c0,2.143,0.371,3.623,1.148,4.631
			c1.009,1.375,2.645,2.103,4.241,2.103s3.261-0.728,4.271-2.103c0.765-1.008,1.118-2.488,1.118-4.631V118.675z M237.67,126.26
			c0.2,1.996-0.419,2.986-1.597,2.986c-1.178,0-1.796-0.99-1.597-2.986v-7.983c-0.2-1.996,0.419-2.932,1.597-2.932
			s1.798,0.936,1.599,2.932L237.67,126.26z"/>
		<path id="y_2_" d="M226.492,121.271v10.978h-3.992v-10.978c0,0-4.137-13.459-4.99-15.968h4.191l2.801,10.514l2.787-10.514h4.192
			L226.492,121.271z"/>
	</g>
	<g id="Tube">
		<path id="e_1_" fill="#FFFFFF" d="M312.524,122.867l-0.001-4.081c0-2.132-0.42-3.691-1.175-4.7
			c-1.013-1.365-2.452-2.087-4.265-2.087c-1.845,0-3.283,0.722-4.329,2.087c-0.768,1.009-1.215,2.656-1.215,4.788v6.985
			c0,2.12,0.492,3.604,1.26,4.602c1.045,1.362,2.483,2.043,4.374,2.043c1.888,0,3.371-0.714,4.37-2.162
			c0.439-0.639,0.724-1.364,0.846-2.165c0.032-0.362,0.128-1.186,0.128-2.351v-0.565h-3.792c0,1.45,0.006,2.312-0.027,2.509
			c-0.206,0.966-0.725,1.45-1.614,1.45c-1.24,0-1.765-0.928-1.752-2.77v-3.584H312.524z M305.331,117.669
			c0-1.865,0.512-2.374,1.719-2.374c1.197,0,1.675,0.554,1.675,2.399v2.179l-3.394,0.004V117.669z"/>
		<path id="b_1_" fill="#FFFFFF" d="M295.773,111.968c-1.33,0-2.651,0.817-3.818,2.254l0.005-8.72h-3.593v26.746h3.593l0.005-2.01
			c1.207,1.493,2.523,2.267,3.809,2.267c1.438,0,2.49-0.771,2.973-2.253c0.241-0.846,0.398-2.147,0.398-3.992v-7.983
			c0-1.889-0.242-3.181-0.483-3.983C298.178,112.799,297.211,111.968,295.773,111.968z M295.352,126.46
			c0,1.995-0.471,2.761-1.513,2.761c-0.595,0-1.28-0.307-1.885-0.911l0.005-12.104c0.604-0.597,1.285-0.911,1.88-0.911
			c1.042,0,1.513,0.586,1.513,2.582V126.46z"/>
		<path id="u_1_" fill="#FFFFFF" d="M285.372,132.248h-3.792v-2.196c-1.438,1.648-2.656,2.48-3.985,2.48
			c-1.165,0-1.975-0.55-2.38-1.543c-0.246-0.604-0.421-1.548-0.421-2.933v-15.768h3.792v14.77c0,0.847,0,1.197,0,1.396
			c0.088,0.561,0.326,0.766,0.809,0.766c0.726,0,1.383-0.631,2.186-1.764v-15.168h3.792V132.248z"/>
		<polygon id="T" fill="#FFFFFF" points="271.002,132.248 267.01,132.248 267.01,109.294 262.819,109.294 262.819,105.506 
			275.393,105.502 275.393,109.294 271.002,109.294 		"/>
	</g>
</g>
</svg>
