<?xml version="1.0" encoding="utf-8"?>
<!-- Generator: Adobe Illustrator 16.0.0, SVG Export Plug-In . SVG Version: 6.00 Build 0)  -->
<!DOCTYPE svg PUBLIC "-//W3C//DTD SVG 1.1//EN" "http://www.w3.org/Graphics/SVG/1.1/DTD/svg11.dtd">
<svg version="1.1" id="Ebene_1" xmlns="http://www.w3.org/2000/svg" xmlns:xlink="http://www.w3.org/1999/xlink" x="0px" y="0px"
	 width="40px" height="40px" viewBox="0 0 40 40" enable-background="new 0 0 40 40" xml:space="preserve">
<circle fill="#D03528" cx="20" cy="19.969" r="19.5"/>
<path fill="#FFFFFF" d="M17.766,14.364c0,0.628,0.181,1.13,0.543,1.501c0.36,0.372,0.842,0.558,1.444,0.558
	c0.625,0,1.116-0.18,1.472-0.541c0.357-0.36,0.535-0.856,0.535-1.491V10.57c0-0.564-0.182-1.025-0.545-1.384
	c-0.364-0.358-0.829-0.537-1.398-0.537c-0.626,0-1.125,0.171-1.496,0.51c-0.369,0.34-0.555,0.797-0.555,1.369V14.364L17.766,14.364z
	 M19.182,10.473c0-0.162,0.052-0.293,0.157-0.392c0.105-0.098,0.242-0.149,0.41-0.149c0.182,0,0.329,0.051,0.44,0.149
	c0.112,0.099,0.167,0.23,0.167,0.392v4.03c0,0.2-0.053,0.355-0.163,0.469c-0.111,0.114-0.259,0.171-0.445,0.171
	c-0.183,0-0.323-0.056-0.42-0.167c-0.098-0.111-0.147-0.269-0.147-0.472V10.473L19.182,10.473z M14.483,16.237h1.549v-4.163
	l1.804-5.869h-1.576l-0.958,4.01h-0.098L14.2,6.205H12.64l1.844,6.057V16.237L14.483,16.237z M23.89,16.344
	c0.258,0,0.522-0.079,0.8-0.236c0.271-0.156,0.536-0.387,0.79-0.687v0.816h1.374v-7.4h-1.374v5.618
	c-0.128,0.162-0.271,0.294-0.427,0.398c-0.153,0.104-0.279,0.156-0.385,0.156c-0.126,0-0.22-0.039-0.278-0.118
	c-0.059-0.078-0.085-0.205-0.085-0.38V8.836h-1.376v6.186c0,0.44,0.079,0.771,0.242,0.992C23.332,16.234,23.57,16.344,23.89,16.344z
	 M31.188,21.851c0-1.785-1.467-3.237-3.277-3.237c-2.579-0.107-5.218-0.156-7.91-0.15c-2.695-0.005-5.334,0.043-7.914,0.15
	c-1.809,0-3.275,1.452-3.275,3.237c-0.108,1.414-0.156,2.832-0.152,4.247c-0.004,1.416,0.043,2.832,0.152,4.247
	c0,1.786,1.467,3.238,3.275,3.238c2.58,0.108,5.219,0.154,7.914,0.149c2.692,0.005,5.331-0.041,7.91-0.149
	c1.811,0,3.277-1.452,3.277-3.238c0.106-1.415,0.155-2.831,0.151-4.247C31.344,24.683,31.295,23.265,31.188,21.851z M13.571,30.969
	h-1.55v-8.576h-1.603v-1.455h4.756v1.455h-1.603V30.969z M19.082,30.969h-1.375v-0.815c-0.253,0.3-0.517,0.53-0.792,0.687
	c-0.274,0.157-0.54,0.237-0.798,0.237c-0.318,0-0.558-0.11-0.718-0.331c-0.161-0.22-0.243-0.552-0.243-0.99V23.57h1.376v5.67
	c0,0.18,0.029,0.305,0.086,0.382c0.058,0.078,0.151,0.117,0.28,0.117c0.102,0,0.229-0.05,0.384-0.154
	c0.154-0.104,0.296-0.237,0.425-0.397V23.57h1.375V30.969z M24.379,29.437c0,0.525-0.108,0.928-0.324,1.209
	c-0.215,0.278-0.525,0.417-0.935,0.417c-0.268,0-0.507-0.055-0.717-0.161c-0.213-0.109-0.409-0.274-0.589-0.501v0.568h-1.389V20.938
	h1.389v3.231c0.187-0.228,0.382-0.398,0.593-0.517c0.206-0.116,0.417-0.175,0.631-0.175c0.435,0,0.768,0.156,0.997,0.472
	c0.228,0.317,0.344,0.777,0.344,1.382V29.437L24.379,29.437z M29.465,27.442h-2.632v1.397c0,0.389,0.045,0.658,0.135,0.81
	c0.093,0.149,0.247,0.227,0.467,0.227c0.229,0,0.387-0.065,0.477-0.191c0.092-0.128,0.137-0.409,0.137-0.845v-0.516h1.417v0.558
	c0,0.756-0.172,1.328-0.519,1.713c-0.345,0.384-0.858,0.576-1.544,0.576c-0.614,0-1.1-0.204-1.454-0.61
	c-0.354-0.407-0.531-0.968-0.531-1.679v-3.323c0-0.643,0.195-1.166,0.582-1.57c0.391-0.405,0.891-0.604,1.507-0.604
	c0.629,0,1.113,0.187,1.45,0.562c0.339,0.373,0.509,0.913,0.509,1.613V27.442L29.465,27.442L29.465,27.442z M27.446,24.678
	c-0.219,0-0.375,0.067-0.469,0.2c-0.098,0.136-0.145,0.358-0.145,0.668v0.749h1.215v-0.749c0-0.31-0.045-0.532-0.141-0.668
	C27.81,24.745,27.655,24.678,27.446,24.678z M22.388,24.652c-0.096,0-0.195,0.023-0.289,0.072c-0.096,0.047-0.192,0.124-0.284,0.225
	v4.611c0.111,0.12,0.22,0.209,0.325,0.262c0.104,0.055,0.216,0.077,0.334,0.077c0.167,0,0.291-0.052,0.369-0.154
	c0.08-0.104,0.119-0.274,0.119-0.511v-3.821c0-0.248-0.048-0.438-0.146-0.568C22.719,24.717,22.575,24.652,22.388,24.652z"/>
</svg>
